<svg width="216" height="41" viewBox="0 0 216 41" fill="none" xmlns="http://www.w3.org/2000/svg">
<rect width="216" height="41" rx="8" fill="#CD93E4"/>
<path d="M20.52 27.44C20.6053 27.7813 20.648 28.208 20.648 28.72C20.648 29.2107 20.6053 29.6373 20.52 30H11.56C11.4747 29.6373 11.432 29.2107 11.432 28.72C11.432 28.208 11.4747 27.7813 11.56 27.44C11.4747 27.0773 11.432 26.6507 11.432 26.16C11.432 25.648 11.4747 25.2213 11.56 24.88C11.4747 24.5173 11.432 24.0907 11.432 23.6C11.432 23.088 11.4747 22.6613 11.56 22.32C11.4747 21.9573 11.432 21.5307 11.432 21.04C11.432 20.528 11.4747 20.1013 11.56 19.76C11.4747 19.3973 11.432 18.9707 11.432 18.48C11.432 17.968 11.4747 17.5413 11.56 17.2C11.4747 16.8373 11.432 16.4107 11.432 15.92C11.432 15.408 11.4747 14.9813 11.56 14.64C11.4747 14.2773 11.432 13.8507 11.432 13.36C11.432 12.848 11.4747 12.4213 11.56 12.08H14.12C14.2053 12.4213 14.248 12.848 14.248 13.36C14.248 13.8507 14.2053 14.2773 14.12 14.64C14.2053 14.9813 14.248 15.408 14.248 15.92C14.248 16.4107 14.2053 16.8373 14.12 17.2C14.2053 17.5413 14.248 17.968 14.248 18.48C14.248 18.9707 14.2053 19.3973 14.12 19.76C14.2053 20.1013 14.248 20.528 14.248 21.04C14.248 21.5307 14.2053 21.9573 14.12 22.32C14.2053 22.6613 14.248 23.088 14.248 23.6C14.248 24.0907 14.2053 24.5173 14.12 24.88C14.2053 25.2213 14.248 25.648 14.248 26.16C14.248 26.6507 14.2053 27.0773 14.12 27.44H20.52ZM33.3325 27.44C33.4178 27.7813 33.4605 28.208 33.4605 28.72C33.4605 29.2107 33.4178 29.6373 33.3325 30H30.7725C30.6872 29.6373 30.6445 29.2107 30.6445 28.72C30.6445 28.208 30.6872 27.7813 30.7725 27.44H29.4925C29.4072 27.0773 29.3645 26.6507 29.3645 26.16C29.3645 25.648 29.4072 25.2213 29.4925 24.88H25.6525C25.7378 25.2213 25.7805 25.648 25.7805 26.16C25.7805 26.6507 25.7378 27.0773 25.6525 27.44H29.4925C29.5778 27.7813 29.6205 28.208 29.6205 28.72C29.6205 29.2107 29.5778 29.6373 29.4925 30H24.3725C24.2872 29.6373 24.2445 29.2107 24.2445 28.72C24.2445 28.208 24.2872 27.7813 24.3725 27.44H23.0925C23.0072 27.0773 22.9645 26.6507 22.9645 26.16C22.9645 25.648 23.0072 25.2213 23.0925 24.88H24.3725C24.2872 24.5173 24.2445 24.0907 24.2445 23.6C24.2445 23.088 24.2872 22.6613 24.3725 22.32H29.4925C29.4072 21.9573 29.3645 21.5307 29.3645 21.04C29.3645 20.528 29.4072 20.1013 29.4925 19.76H25.0125C24.9272 19.3973 24.8845 18.9707 24.8845 18.48C24.8845 17.968 24.9272 17.5413 25.0125 17.2H30.7725C30.8578 17.5413 30.9005 17.968 30.9005 18.48C30.9005 18.9707 30.8578 19.3973 30.7725 19.76H32.0525C32.1378 20.1013 32.1805 20.528 32.1805 21.04C32.1805 21.5307 32.1378 21.9573 32.0525 22.32C32.1378 22.6613 32.1805 23.088 32.1805 23.6C32.1805 24.0907 32.1378 24.5173 32.0525 24.88C32.1378 25.2213 32.1805 25.648 32.1805 26.16C32.1805 26.6507 32.1378 27.0773 32.0525 27.44H33.3325ZM39.553 26.16C39.553 26.6507 39.5103 27.0773 39.425 27.44H42.625C42.7103 27.7813 42.753 28.208 42.753 28.72C42.753 29.2107 42.7103 29.6373 42.625 30H37.505C37.4197 29.6373 37.377 29.2107 37.377 28.72C37.377 28.208 37.4197 27.7813 37.505 27.44H35.905C35.8197 27.0773 35.777 26.6507 35.777 26.16C35.777 25.648 35.8197 25.2213 35.905 24.88C35.8197 24.5173 35.777 24.0907 35.777 23.6C35.777 23.088 35.8197 22.6613 35.905 22.32C35.8197 21.9573 35.777 21.5307 35.777 21.04C35.777 20.528 35.8197 20.1013 35.905 19.76C35.8197 19.3973 35.777 18.9707 35.777 18.48C35.777 17.968 35.8197 17.5413 35.905 17.2H38.465C38.5503 17.5413 38.593 17.968 38.593 18.48C38.593 18.9707 38.5503 19.3973 38.465 19.76C38.5503 20.1013 38.593 20.528 38.593 21.04C38.593 21.5307 38.5503 21.9573 38.465 22.32C38.5503 22.6613 38.593 23.088 38.593 23.6C38.593 24.0907 38.5503 24.5173 38.465 24.88H39.425C39.5103 25.2213 39.553 25.648 39.553 26.16ZM46.145 19.76C46.2303 20.1013 46.273 20.528 46.273 21.04C46.273 21.5307 46.2303 21.9573 46.145 22.32C46.2303 22.6613 46.273 23.088 46.273 23.6C46.273 24.0907 46.2303 24.5173 46.145 24.88C46.2303 25.2213 46.273 25.648 46.273 26.16C46.273 26.6507 46.2303 27.0773 46.145 27.44C46.2303 27.7813 46.273 28.208 46.273 28.72C46.273 29.2107 46.2303 29.6373 46.145 30H43.585C43.4997 29.6373 43.457 29.2107 43.457 28.72C43.457 28.208 43.4997 27.7813 43.585 27.44H42.625C42.5397 27.0773 42.497 26.6507 42.497 26.16C42.497 25.648 42.5397 25.2213 42.625 24.88H43.585C43.4997 24.5173 43.457 24.0907 43.457 23.6C43.457 23.088 43.4997 22.6613 43.585 22.32C43.4997 21.9573 43.457 21.5307 43.457 21.04C43.457 20.528 43.4997 20.1013 43.585 19.76C43.4997 19.3973 43.457 18.9707 43.457 18.48C43.457 17.968 43.4997 17.5413 43.585 17.2H46.145C46.2303 17.5413 46.273 17.968 46.273 18.48C46.273 18.9707 46.2303 19.3973 46.145 19.76ZM51.0855 18.48C51.0855 18.9707 51.0428 19.3973 50.9575 19.76H52.2375C52.3228 20.1013 52.3655 20.528 52.3655 21.04C52.3655 21.5307 52.3228 21.9573 52.2375 22.32H51.2775C51.3628 22.6613 51.4055 23.088 51.4055 23.6C51.4055 24.0907 51.3628 24.5173 51.2775 24.88C51.3628 25.2213 51.4055 25.648 51.4055 26.16C51.4055 26.6507 51.3628 27.0773 51.2775 27.44C51.3628 27.7813 51.4055 28.208 51.4055 28.72C51.4055 29.2107 51.3628 29.6373 51.2775 30H48.7175C48.6322 29.6373 48.5895 29.2107 48.5895 28.72C48.5895 28.208 48.6322 27.7813 48.7175 27.44C48.6322 27.0773 48.5895 26.6507 48.5895 26.16C48.5895 25.648 48.6322 25.2213 48.7175 24.88C48.6322 24.5173 48.5895 24.0907 48.5895 23.6C48.5895 23.088 48.6322 22.6613 48.7175 22.32C48.6322 21.9573 48.5895 21.5307 48.5895 21.04C48.5895 20.528 48.6322 20.1013 48.7175 19.76C48.6322 19.3973 48.5895 18.9707 48.5895 18.48C48.5895 17.968 48.6322 17.5413 48.7175 17.2H50.9575C51.0428 17.5413 51.0855 17.968 51.0855 18.48ZM58.9575 22.32C59.0428 22.6613 59.0855 23.088 59.0855 23.6C59.0855 24.0907 59.0428 24.5173 58.9575 24.88C59.0428 25.2213 59.0855 25.648 59.0855 26.16C59.0855 26.6507 59.0428 27.0773 58.9575 27.44C59.0428 27.7813 59.0855 28.208 59.0855 28.72C59.0855 29.2107 59.0428 29.6373 58.9575 30H56.3975C56.3122 29.6373 56.2695 29.2107 56.2695 28.72C56.2695 28.208 56.3122 27.7813 56.3975 27.44C56.3122 27.0773 56.2695 26.6507 56.2695 26.16C56.2695 25.648 56.3122 25.2213 56.3975 24.88C56.3122 24.5173 56.2695 24.0907 56.2695 23.6C56.2695 23.088 56.3122 22.6613 56.3975 22.32C56.3122 21.9573 56.2695 21.5307 56.2695 21.04C56.2695 20.528 56.3122 20.1013 56.3975 19.76H52.2375C52.1522 19.3973 52.1095 18.9707 52.1095 18.48C52.1095 17.968 52.1522 17.5413 52.2375 17.2H57.3575C57.4428 17.5413 57.4855 17.968 57.4855 18.48C57.4855 18.9707 57.4428 19.3973 57.3575 19.76H58.9575C59.0428 20.1013 59.0855 20.528 59.0855 21.04C59.0855 21.5307 59.0428 21.9573 58.9575 22.32ZM71.77 24.88C71.8553 25.2213 71.898 25.648 71.898 26.16C71.898 26.6507 71.8553 27.0773 71.77 27.44H70.49C70.5753 27.7813 70.618 28.208 70.618 28.72C70.618 29.2107 70.5753 29.6373 70.49 30H64.09C64.0047 29.6373 63.962 29.2107 63.962 28.72C63.962 28.208 64.0047 27.7813 64.09 27.44H62.81C62.7247 27.0773 62.682 26.6507 62.682 26.16C62.682 25.648 62.7247 25.2213 62.81 24.88H61.53C61.4447 24.5173 61.402 24.0907 61.402 23.6C61.402 23.088 61.4447 22.6613 61.53 22.32H62.81C62.7247 21.9573 62.682 21.5307 62.682 21.04C62.682 20.528 62.7247 20.1013 62.81 19.76H64.09C64.0047 19.3973 63.962 18.9707 63.962 18.48C63.962 17.968 64.0047 17.5413 64.09 17.2H70.49C70.5753 17.5413 70.618 17.968 70.618 18.48C70.618 18.9707 70.5753 19.3973 70.49 19.76H71.77C71.8553 20.1013 71.898 20.528 71.898 21.04C71.898 21.5307 71.8553 21.9573 71.77 22.32H69.21C69.1247 21.9573 69.082 21.5307 69.082 21.04C69.082 20.528 69.1247 20.1013 69.21 19.76H65.37C65.4553 20.1013 65.498 20.528 65.498 21.04C65.498 21.5307 65.4553 21.9573 65.37 22.32H64.09C64.1753 22.6613 64.218 23.088 64.218 23.6C64.218 24.0907 64.1753 24.5173 64.09 24.88H65.37C65.4553 25.2213 65.498 25.648 65.498 26.16C65.498 26.6507 65.4553 27.0773 65.37 27.44H69.21C69.1247 27.0773 69.082 26.6507 69.082 26.16C69.082 25.648 69.1247 25.2213 69.21 24.88H71.77ZM77.0305 18.48C77.0305 18.9707 76.9878 19.3973 76.9025 19.76H77.8625C77.9478 20.1013 77.9905 20.528 77.9905 21.04C77.9905 21.5307 77.9478 21.9573 77.8625 22.32H76.9025C76.9878 22.6613 77.0305 23.088 77.0305 23.6C77.0305 24.0907 76.9878 24.5173 76.9025 24.88C76.9878 25.2213 77.0305 25.648 77.0305 26.16C77.0305 26.6507 76.9878 27.0773 76.9025 27.44C76.9878 27.7813 77.0305 28.208 77.0305 28.72C77.0305 29.2107 76.9878 29.6373 76.9025 30H74.3425C74.2572 29.6373 74.2145 29.2107 74.2145 28.72C74.2145 28.208 74.2572 27.7813 74.3425 27.44C74.2572 27.0773 74.2145 26.6507 74.2145 26.16C74.2145 25.648 74.2572 25.2213 74.3425 24.88C74.2572 24.5173 74.2145 24.0907 74.2145 23.6C74.2145 23.088 74.2572 22.6613 74.3425 22.32C74.2572 21.9573 74.2145 21.5307 74.2145 21.04C74.2145 20.528 74.2572 20.1013 74.3425 19.76C74.2572 19.3973 74.2145 18.9707 74.2145 18.48C74.2145 17.968 74.2572 17.5413 74.3425 17.2C74.2572 16.8373 74.2145 16.4107 74.2145 15.92C74.2145 15.408 74.2572 14.9813 74.3425 14.64C74.2572 14.2773 74.2145 13.8507 74.2145 13.36C74.2145 12.848 74.2572 12.4213 74.3425 12.08H76.9025C76.9878 12.4213 77.0305 12.848 77.0305 13.36C77.0305 13.8507 76.9878 14.2773 76.9025 14.64C76.9878 14.9813 77.0305 15.408 77.0305 15.92C77.0305 16.4107 76.9878 16.8373 76.9025 17.2C76.9878 17.5413 77.0305 17.968 77.0305 18.48ZM84.5825 22.32C84.6678 22.6613 84.7105 23.088 84.7105 23.6C84.7105 24.0907 84.6678 24.5173 84.5825 24.88C84.6678 25.2213 84.7105 25.648 84.7105 26.16C84.7105 26.6507 84.6678 27.0773 84.5825 27.44C84.6678 27.7813 84.7105 28.208 84.7105 28.72C84.7105 29.2107 84.6678 29.6373 84.5825 30H82.0225C81.9372 29.6373 81.8945 29.2107 81.8945 28.72C81.8945 28.208 81.9372 27.7813 82.0225 27.44C81.9372 27.0773 81.8945 26.6507 81.8945 26.16C81.8945 25.648 81.9372 25.2213 82.0225 24.88C81.9372 24.5173 81.8945 24.0907 81.8945 23.6C81.8945 23.088 81.9372 22.6613 82.0225 22.32C81.9372 21.9573 81.8945 21.5307 81.8945 21.04C81.8945 20.528 81.9372 20.1013 82.0225 19.76H77.8625C77.7772 19.3973 77.7345 18.9707 77.7345 18.48C77.7345 17.968 77.7772 17.5413 77.8625 17.2H82.9825C83.0678 17.5413 83.1105 17.968 83.1105 18.48C83.1105 18.9707 83.0678 19.3973 82.9825 19.76H84.5825C84.6678 20.1013 84.7105 20.528 84.7105 21.04C84.7105 21.5307 84.6678 21.9573 84.5825 22.32ZM97.395 14.64C97.4803 14.9813 97.523 15.408 97.523 15.92C97.523 16.4107 97.4803 16.8373 97.395 17.2C97.4803 17.5413 97.523 17.968 97.523 18.48C97.523 18.9707 97.4803 19.3973 97.395 19.76H96.435C96.5203 20.1013 96.563 20.528 96.563 21.04C96.563 21.5307 96.5203 21.9573 96.435 22.32H95.475C95.5603 22.6613 95.603 23.088 95.603 23.6C95.603 24.0907 95.5603 24.5173 95.475 24.88H94.835C94.9203 25.2213 94.963 25.648 94.963 26.16C94.963 26.6507 94.9203 27.0773 94.835 27.44H93.555C93.6403 27.7813 93.683 28.208 93.683 28.72C93.683 29.2107 93.6403 29.6373 93.555 30H90.995C90.9097 29.6373 90.867 29.2107 90.867 28.72C90.867 28.208 90.9097 27.7813 90.995 27.44H89.715C89.6297 27.0773 89.587 26.6507 89.587 26.16C89.587 25.648 89.6297 25.2213 89.715 24.88H89.075C88.9897 24.5173 88.947 24.0907 88.947 23.6C88.947 23.088 88.9897 22.6613 89.075 22.32H88.115C88.0297 21.9573 87.987 21.5307 87.987 21.04C87.987 20.528 88.0297 20.1013 88.115 19.76H87.155C87.0697 19.3973 87.027 18.9707 87.027 18.48C87.027 17.968 87.0697 17.5413 87.155 17.2C87.0697 16.8373 87.027 16.4107 87.027 15.92C87.027 15.408 87.0697 14.9813 87.155 14.64C87.0697 14.2773 87.027 13.8507 87.027 13.36C87.027 12.848 87.0697 12.4213 87.155 12.08H89.715C89.8003 12.4213 89.843 12.848 89.843 13.36C89.843 13.8507 89.8003 14.2773 89.715 14.64C89.8003 14.9813 89.843 15.408 89.843 15.92C89.843 16.4107 89.8003 16.8373 89.715 17.2C89.8003 17.5413 89.843 17.968 89.843 18.48C89.843 18.9707 89.8003 19.3973 89.715 19.76H90.675C90.7603 20.1013 90.803 20.528 90.803 21.04C90.803 21.5307 90.7603 21.9573 90.675 22.32H91.635C91.7203 22.6613 91.763 23.088 91.763 23.6C91.763 24.0907 91.7203 24.5173 91.635 24.88H92.915C92.8297 24.5173 92.787 24.0907 92.787 23.6C92.787 23.088 92.8297 22.6613 92.915 22.32H93.875C93.7897 21.9573 93.747 21.5307 93.747 21.04C93.747 20.528 93.7897 20.1013 93.875 19.76H94.835C94.7497 19.3973 94.707 18.9707 94.707 18.48C94.707 17.968 94.7497 17.5413 94.835 17.2C94.7497 16.8373 94.707 16.4107 94.707 15.92C94.707 15.408 94.7497 14.9813 94.835 14.64C94.7497 14.2773 94.707 13.8507 94.707 13.36C94.707 12.848 94.7497 12.4213 94.835 12.08H97.395C97.4803 12.4213 97.523 12.848 97.523 13.36C97.523 13.8507 97.4803 14.2773 97.395 14.64ZM110.336 21.04C110.336 21.5307 110.293 21.9573 110.208 22.32C110.293 22.6613 110.336 23.088 110.336 23.6C110.336 24.0907 110.293 24.5173 110.208 24.88H103.488C103.573 25.2213 103.616 25.648 103.616 26.16C103.616 26.6507 103.573 27.0773 103.488 27.44H108.928C109.013 27.7813 109.056 28.208 109.056 28.72C109.056 29.2107 109.013 29.6373 108.928 30H102.528C102.442 29.6373 102.4 29.2107 102.4 28.72C102.4 28.208 102.442 27.7813 102.528 27.44H100.928C100.842 27.0773 100.799 26.6507 100.799 26.16C100.799 25.648 100.842 25.2213 100.928 24.88H99.9675C99.8822 24.5173 99.8395 24.0907 99.8395 23.6C99.8395 23.088 99.8822 22.6613 99.9675 22.32H100.928C100.842 21.9573 100.799 21.5307 100.799 21.04C100.799 20.528 100.842 20.1013 100.928 19.76H102.528C102.442 19.3973 102.4 18.9707 102.4 18.48C102.4 17.968 102.442 17.5413 102.528 17.2H108.928C109.013 17.5413 109.056 17.968 109.056 18.48C109.056 18.9707 109.013 19.3973 108.928 19.76H110.208C110.293 20.1013 110.336 20.528 110.336 21.04ZM107.648 22.32C107.562 21.9573 107.52 21.5307 107.52 21.04C107.52 20.528 107.562 20.1013 107.648 19.76H103.488C103.573 20.1013 103.616 20.528 103.616 21.04C103.616 21.5307 103.573 21.9573 103.488 22.32H107.648ZM123.02 19.76C123.105 20.1013 123.148 20.528 123.148 21.04C123.148 21.5307 123.105 21.9573 123.02 22.32H120.46C120.375 21.9573 120.332 21.5307 120.332 21.04C120.332 20.528 120.375 20.1013 120.46 19.76H118.22C118.305 20.1013 118.348 20.528 118.348 21.04C118.348 21.5307 118.305 21.9573 118.22 22.32H117.26C117.345 22.6613 117.388 23.088 117.388 23.6C117.388 24.0907 117.345 24.5173 117.26 24.88C117.345 25.2213 117.388 25.648 117.388 26.16C117.388 26.6507 117.345 27.0773 117.26 27.44H119.18C119.265 27.7813 119.308 28.208 119.308 28.72C119.308 29.2107 119.265 29.6373 119.18 30H112.78C112.695 29.6373 112.652 29.2107 112.652 28.72C112.652 28.208 112.695 27.7813 112.78 27.44H114.7C114.615 27.0773 114.572 26.6507 114.572 26.16C114.572 25.648 114.615 25.2213 114.7 24.88C114.615 24.5173 114.572 24.0907 114.572 23.6C114.572 23.088 114.615 22.6613 114.7 22.32C114.615 21.9573 114.572 21.5307 114.572 21.04C114.572 20.528 114.615 20.1013 114.7 19.76H112.78C112.695 19.3973 112.652 18.9707 112.652 18.48C112.652 17.968 112.695 17.5413 112.78 17.2H115.98C116.065 17.5413 116.108 17.968 116.108 18.48C116.108 18.9707 116.065 19.3973 115.98 19.76H117.26C117.175 19.3973 117.132 18.9707 117.132 18.48C117.132 17.968 117.175 17.5413 117.26 17.2H122.06C122.145 17.5413 122.188 17.968 122.188 18.48C122.188 18.9707 122.145 19.3973 122.06 19.76H123.02ZM135.321 26.16C135.321 26.6507 135.278 27.0773 135.193 27.44H133.913C133.998 27.7813 134.041 28.208 134.041 28.72C134.041 29.2107 133.998 29.6373 133.913 30H126.873C126.787 29.6373 126.745 29.2107 126.745 28.72C126.745 28.208 126.787 27.7813 126.873 27.44H132.633C132.547 27.0773 132.505 26.6507 132.505 26.16C132.505 25.648 132.547 25.2213 132.633 24.88H127.513C127.427 24.5173 127.385 24.0907 127.385 23.6C127.385 23.088 127.427 22.6613 127.513 22.32H126.233C126.147 21.9573 126.105 21.5307 126.105 21.04C126.105 20.528 126.147 20.1013 126.233 19.76H127.513C127.427 19.3973 127.385 18.9707 127.385 18.48C127.385 17.968 127.427 17.5413 127.513 17.2H134.553C134.638 17.5413 134.681 17.968 134.681 18.48C134.681 18.9707 134.638 19.3973 134.553 19.76H128.793C128.878 20.1013 128.921 20.528 128.921 21.04C128.921 21.5307 128.878 21.9573 128.793 22.32H133.913C133.998 22.6613 134.041 23.088 134.041 23.6C134.041 24.0907 133.998 24.5173 133.913 24.88H135.193C135.278 25.2213 135.321 25.648 135.321 26.16ZM148.773 21.04C148.773 21.5307 148.73 21.9573 148.645 22.32C148.73 22.6613 148.773 23.088 148.773 23.6C148.773 24.0907 148.73 24.5173 148.645 24.88H141.925C142.01 25.2213 142.053 25.648 142.053 26.16C142.053 26.6507 142.01 27.0773 141.925 27.44H147.365C147.45 27.7813 147.493 28.208 147.493 28.72C147.493 29.2107 147.45 29.6373 147.365 30H140.965C140.88 29.6373 140.837 29.2107 140.837 28.72C140.837 28.208 140.88 27.7813 140.965 27.44H139.365C139.28 27.0773 139.237 26.6507 139.237 26.16C139.237 25.648 139.28 25.2213 139.365 24.88H138.405C138.32 24.5173 138.277 24.0907 138.277 23.6C138.277 23.088 138.32 22.6613 138.405 22.32H139.365C139.28 21.9573 139.237 21.5307 139.237 21.04C139.237 20.528 139.28 20.1013 139.365 19.76H140.965C140.88 19.3973 140.837 18.9707 140.837 18.48C140.837 17.968 140.88 17.5413 140.965 17.2H147.365C147.45 17.5413 147.493 17.968 147.493 18.48C147.493 18.9707 147.45 19.3973 147.365 19.76H148.645C148.73 20.1013 148.773 20.528 148.773 21.04ZM146.085 22.32C146 21.9573 145.957 21.5307 145.957 21.04C145.957 20.528 146 20.1013 146.085 19.76H141.925C142.01 20.1013 142.053 20.528 142.053 21.04C142.053 21.5307 142.01 21.9573 141.925 22.32H146.085ZM158.066 26.16C158.066 26.6507 158.023 27.0773 157.938 27.44C158.023 27.7813 158.066 28.208 158.066 28.72C158.066 29.2107 158.023 29.6373 157.938 30H154.738C154.652 29.6373 154.61 29.2107 154.61 28.72C154.61 28.208 154.652 27.7813 154.738 27.44C154.652 27.0773 154.61 26.6507 154.61 26.16C154.61 25.648 154.652 25.2213 154.738 24.88H157.938C158.023 25.2213 158.066 25.648 158.066 26.16ZM174.27 14.64C174.355 14.9813 174.398 15.408 174.398 15.92C174.398 16.4107 174.355 16.8373 174.27 17.2C174.355 17.5413 174.398 17.968 174.398 18.48C174.398 18.9707 174.355 19.3973 174.27 19.76C174.355 20.1013 174.398 20.528 174.398 21.04C174.398 21.5307 174.355 21.9573 174.27 22.32C174.355 22.6613 174.398 23.088 174.398 23.6C174.398 24.0907 174.355 24.5173 174.27 24.88C174.355 25.2213 174.398 25.648 174.398 26.16C174.398 26.6507 174.355 27.0773 174.27 27.44C174.355 27.7813 174.398 28.208 174.398 28.72C174.398 29.2107 174.355 29.6373 174.27 30H171.71C171.625 29.6373 171.582 29.2107 171.582 28.72C171.582 28.208 171.625 27.7813 171.71 27.44H170.75C170.665 27.0773 170.622 26.6507 170.622 26.16C170.622 25.648 170.665 25.2213 170.75 24.88H171.71C171.625 24.5173 171.582 24.0907 171.582 23.6C171.582 23.088 171.625 22.6613 171.71 22.32H170.75C170.665 21.9573 170.622 21.5307 170.622 21.04C170.622 20.528 170.665 20.1013 170.75 19.76H171.71C171.625 19.3973 171.582 18.9707 171.582 18.48C171.582 17.968 171.625 17.5413 171.71 17.2C171.625 16.8373 171.582 16.4107 171.582 15.92C171.582 15.408 171.625 14.9813 171.71 14.64C171.625 14.2773 171.582 13.8507 171.582 13.36C171.582 12.848 171.625 12.4213 171.71 12.08H174.27C174.355 12.4213 174.398 12.848 174.398 13.36C174.398 13.8507 174.355 14.2773 174.27 14.64ZM170.238 18.48C170.238 18.9707 170.195 19.3973 170.11 19.76H166.91C166.995 20.1013 167.038 20.528 167.038 21.04C167.038 21.5307 166.995 21.9573 166.91 22.32H165.95C166.035 22.6613 166.078 23.088 166.078 23.6C166.078 24.0907 166.035 24.5173 165.95 24.88H166.91C166.995 25.2213 167.038 25.648 167.038 26.16C167.038 26.6507 166.995 27.0773 166.91 27.44H170.11C170.195 27.7813 170.238 28.208 170.238 28.72C170.238 29.2107 170.195 29.6373 170.11 30H166.59C166.505 29.6373 166.462 29.2107 166.462 28.72C166.462 28.208 166.505 27.7813 166.59 27.44H164.99C164.905 27.0773 164.862 26.6507 164.862 26.16C164.862 25.648 164.905 25.2213 164.99 24.88H164.03C163.945 24.5173 163.902 24.0907 163.902 23.6C163.902 23.088 163.945 22.6613 164.03 22.32H164.99C164.905 21.9573 164.862 21.5307 164.862 21.04C164.862 20.528 164.905 20.1013 164.99 19.76H166.59C166.505 19.3973 166.462 18.9707 166.462 18.48C166.462 17.968 166.505 17.5413 166.59 17.2H170.11C170.195 17.5413 170.238 17.968 170.238 18.48ZM187.211 21.04C187.211 21.5307 187.168 21.9573 187.083 22.32C187.168 22.6613 187.211 23.088 187.211 23.6C187.211 24.0907 187.168 24.5173 187.083 24.88H180.363C180.448 25.2213 180.491 25.648 180.491 26.16C180.491 26.6507 180.448 27.0773 180.363 27.44H185.803C185.888 27.7813 185.931 28.208 185.931 28.72C185.931 29.2107 185.888 29.6373 185.803 30H179.403C179.317 29.6373 179.275 29.2107 179.275 28.72C179.275 28.208 179.317 27.7813 179.403 27.44H177.803C177.717 27.0773 177.674 26.6507 177.674 26.16C177.674 25.648 177.717 25.2213 177.803 24.88H176.843C176.757 24.5173 176.715 24.0907 176.715 23.6C176.715 23.088 176.757 22.6613 176.843 22.32H177.803C177.717 21.9573 177.674 21.5307 177.674 21.04C177.674 20.528 177.717 20.1013 177.803 19.76H179.403C179.317 19.3973 179.275 18.9707 179.275 18.48C179.275 17.968 179.317 17.5413 179.403 17.2H185.803C185.888 17.5413 185.931 17.968 185.931 18.48C185.931 18.9707 185.888 19.3973 185.803 19.76H187.083C187.168 20.1013 187.211 20.528 187.211 21.04ZM184.523 22.32C184.437 21.9573 184.395 21.5307 184.395 21.04C184.395 20.528 184.437 20.1013 184.523 19.76H180.363C180.448 20.1013 180.491 20.528 180.491 21.04C180.491 21.5307 180.448 21.9573 180.363 22.32H184.523ZM200.023 18.48C200.023 18.9707 199.98 19.3973 199.895 19.76H198.935C199.02 20.1013 199.063 20.528 199.063 21.04C199.063 21.5307 199.02 21.9573 198.935 22.32H197.975C198.06 22.6613 198.103 23.088 198.103 23.6C198.103 24.0907 198.06 24.5173 197.975 24.88H197.335C197.42 25.2213 197.463 25.648 197.463 26.16C197.463 26.6507 197.42 27.0773 197.335 27.44H196.055C196.14 27.7813 196.183 28.208 196.183 28.72C196.183 29.2107 196.14 29.6373 196.055 30H193.495C193.41 29.6373 193.367 29.2107 193.367 28.72C193.367 28.208 193.41 27.7813 193.495 27.44H192.215C192.13 27.0773 192.087 26.6507 192.087 26.16C192.087 25.648 192.13 25.2213 192.215 24.88H191.575C191.49 24.5173 191.447 24.0907 191.447 23.6C191.447 23.088 191.49 22.6613 191.575 22.32H190.615C190.53 21.9573 190.487 21.5307 190.487 21.04C190.487 20.528 190.53 20.1013 190.615 19.76H189.655C189.57 19.3973 189.527 18.9707 189.527 18.48C189.527 17.968 189.57 17.5413 189.655 17.2H192.215C192.3 17.5413 192.343 17.968 192.343 18.48C192.343 18.9707 192.3 19.3973 192.215 19.76H193.175C193.26 20.1013 193.303 20.528 193.303 21.04C193.303 21.5307 193.26 21.9573 193.175 22.32H194.135C194.22 22.6613 194.263 23.088 194.263 23.6C194.263 24.0907 194.22 24.5173 194.135 24.88H195.415C195.33 24.5173 195.287 24.0907 195.287 23.6C195.287 23.088 195.33 22.6613 195.415 22.32H196.375C196.29 21.9573 196.247 21.5307 196.247 21.04C196.247 20.528 196.29 20.1013 196.375 19.76H197.335C197.25 19.3973 197.207 18.9707 197.207 18.48C197.207 17.968 197.25 17.5413 197.335 17.2H199.895C199.98 17.5413 200.023 17.968 200.023 18.48Z" fill="black"/>
</svg>
