<svg width="190" height="18" viewBox="0 0 190 18" fill="none" xmlns="http://www.w3.org/2000/svg">
<path d="M9.52 15.44C9.60533 15.7813 9.648 16.208 9.648 16.72C9.648 17.2107 9.60533 17.6373 9.52 18H0.56C0.474667 17.6373 0.432 17.2107 0.432 16.72C0.432 16.208 0.474667 15.7813 0.56 15.44C0.474667 15.0773 0.432 14.6507 0.432 14.16C0.432 13.648 0.474667 13.2213 0.56 12.88C0.474667 12.5173 0.432 12.0907 0.432 11.6C0.432 11.088 0.474667 10.6613 0.56 10.32C0.474667 9.95733 0.432 9.53067 0.432 9.04C0.432 8.528 0.474667 8.10133 0.56 7.76C0.474667 7.39733 0.432 6.97067 0.432 6.48C0.432 5.968 0.474667 5.54133 0.56 5.2C0.474667 4.83733 0.432 4.41067 0.432 3.92C0.432 3.408 0.474667 2.98133 0.56 2.64C0.474667 2.27733 0.432 1.85067 0.432 1.36C0.432 0.847999 0.474667 0.421333 0.56 0.0799999H3.12C3.20533 0.421333 3.248 0.847999 3.248 1.36C3.248 1.85067 3.20533 2.27733 3.12 2.64C3.20533 2.98133 3.248 3.408 3.248 3.92C3.248 4.41067 3.20533 4.83733 3.12 5.2C3.20533 5.54133 3.248 5.968 3.248 6.48C3.248 6.97067 3.20533 7.39733 3.12 7.76C3.20533 8.10133 3.248 8.528 3.248 9.04C3.248 9.53067 3.20533 9.95733 3.12 10.32C3.20533 10.6613 3.248 11.088 3.248 11.6C3.248 12.0907 3.20533 12.5173 3.12 12.88C3.20533 13.2213 3.248 13.648 3.248 14.16C3.248 14.6507 3.20533 15.0773 3.12 15.44H9.52ZM22.3325 15.44C22.4178 15.7813 22.4605 16.208 22.4605 16.72C22.4605 17.2107 22.4178 17.6373 22.3325 18H19.7725C19.6872 17.6373 19.6445 17.2107 19.6445 16.72C19.6445 16.208 19.6872 15.7813 19.7725 15.44H18.4925C18.4072 15.0773 18.3645 14.6507 18.3645 14.16C18.3645 13.648 18.4072 13.2213 18.4925 12.88H14.6525C14.7378 13.2213 14.7805 13.648 14.7805 14.16C14.7805 14.6507 14.7378 15.0773 14.6525 15.44H18.4925C18.5778 15.7813 18.6205 16.208 18.6205 16.72C18.6205 17.2107 18.5778 17.6373 18.4925 18H13.3725C13.2872 17.6373 13.2445 17.2107 13.2445 16.72C13.2445 16.208 13.2872 15.7813 13.3725 15.44H12.0925C12.0072 15.0773 11.9645 14.6507 11.9645 14.16C11.9645 13.648 12.0072 13.2213 12.0925 12.88H13.3725C13.2872 12.5173 13.2445 12.0907 13.2445 11.6C13.2445 11.088 13.2872 10.6613 13.3725 10.32H18.4925C18.4072 9.95733 18.3645 9.53067 18.3645 9.04C18.3645 8.528 18.4072 8.10133 18.4925 7.76H14.0125C13.9272 7.39733 13.8845 6.97067 13.8845 6.48C13.8845 5.968 13.9272 5.54133 14.0125 5.2H19.7725C19.8578 5.54133 19.9005 5.968 19.9005 6.48C19.9005 6.97067 19.8578 7.39733 19.7725 7.76H21.0525C21.1378 8.10133 21.1805 8.528 21.1805 9.04C21.1805 9.53067 21.1378 9.95733 21.0525 10.32C21.1378 10.6613 21.1805 11.088 21.1805 11.6C21.1805 12.0907 21.1378 12.5173 21.0525 12.88C21.1378 13.2213 21.1805 13.648 21.1805 14.16C21.1805 14.6507 21.1378 15.0773 21.0525 15.44H22.3325ZM28.553 14.16C28.553 14.6507 28.5103 15.0773 28.425 15.44H31.625C31.7103 15.7813 31.753 16.208 31.753 16.72C31.753 17.2107 31.7103 17.6373 31.625 18H26.505C26.4197 17.6373 26.377 17.2107 26.377 16.72C26.377 16.208 26.4197 15.7813 26.505 15.44H24.905C24.8197 15.0773 24.777 14.6507 24.777 14.16C24.777 13.648 24.8197 13.2213 24.905 12.88C24.8197 12.5173 24.777 12.0907 24.777 11.6C24.777 11.088 24.8197 10.6613 24.905 10.32C24.8197 9.95733 24.777 9.53067 24.777 9.04C24.777 8.528 24.8197 8.10133 24.905 7.76C24.8197 7.39733 24.777 6.97067 24.777 6.48C24.777 5.968 24.8197 5.54133 24.905 5.2H27.465C27.5503 5.54133 27.593 5.968 27.593 6.48C27.593 6.97067 27.5503 7.39733 27.465 7.76C27.5503 8.10133 27.593 8.528 27.593 9.04C27.593 9.53067 27.5503 9.95733 27.465 10.32C27.5503 10.6613 27.593 11.088 27.593 11.6C27.593 12.0907 27.5503 12.5173 27.465 12.88H28.425C28.5103 13.2213 28.553 13.648 28.553 14.16ZM35.145 7.76C35.2303 8.10133 35.273 8.528 35.273 9.04C35.273 9.53067 35.2303 9.95733 35.145 10.32C35.2303 10.6613 35.273 11.088 35.273 11.6C35.273 12.0907 35.2303 12.5173 35.145 12.88C35.2303 13.2213 35.273 13.648 35.273 14.16C35.273 14.6507 35.2303 15.0773 35.145 15.44C35.2303 15.7813 35.273 16.208 35.273 16.72C35.273 17.2107 35.2303 17.6373 35.145 18H32.585C32.4997 17.6373 32.457 17.2107 32.457 16.72C32.457 16.208 32.4997 15.7813 32.585 15.44H31.625C31.5397 15.0773 31.497 14.6507 31.497 14.16C31.497 13.648 31.5397 13.2213 31.625 12.88H32.585C32.4997 12.5173 32.457 12.0907 32.457 11.6C32.457 11.088 32.4997 10.6613 32.585 10.32C32.4997 9.95733 32.457 9.53067 32.457 9.04C32.457 8.528 32.4997 8.10133 32.585 7.76C32.4997 7.39733 32.457 6.97067 32.457 6.48C32.457 5.968 32.4997 5.54133 32.585 5.2H35.145C35.2303 5.54133 35.273 5.968 35.273 6.48C35.273 6.97067 35.2303 7.39733 35.145 7.76ZM40.0855 6.48C40.0855 6.97067 40.0428 7.39733 39.9575 7.76H41.2375C41.3228 8.10133 41.3655 8.528 41.3655 9.04C41.3655 9.53067 41.3228 9.95733 41.2375 10.32H40.2775C40.3628 10.6613 40.4055 11.088 40.4055 11.6C40.4055 12.0907 40.3628 12.5173 40.2775 12.88C40.3628 13.2213 40.4055 13.648 40.4055 14.16C40.4055 14.6507 40.3628 15.0773 40.2775 15.44C40.3628 15.7813 40.4055 16.208 40.4055 16.72C40.4055 17.2107 40.3628 17.6373 40.2775 18H37.7175C37.6322 17.6373 37.5895 17.2107 37.5895 16.72C37.5895 16.208 37.6322 15.7813 37.7175 15.44C37.6322 15.0773 37.5895 14.6507 37.5895 14.16C37.5895 13.648 37.6322 13.2213 37.7175 12.88C37.6322 12.5173 37.5895 12.0907 37.5895 11.6C37.5895 11.088 37.6322 10.6613 37.7175 10.32C37.6322 9.95733 37.5895 9.53067 37.5895 9.04C37.5895 8.528 37.6322 8.10133 37.7175 7.76C37.6322 7.39733 37.5895 6.97067 37.5895 6.48C37.5895 5.968 37.6322 5.54133 37.7175 5.2H39.9575C40.0428 5.54133 40.0855 5.968 40.0855 6.48ZM47.9575 10.32C48.0428 10.6613 48.0855 11.088 48.0855 11.6C48.0855 12.0907 48.0428 12.5173 47.9575 12.88C48.0428 13.2213 48.0855 13.648 48.0855 14.16C48.0855 14.6507 48.0428 15.0773 47.9575 15.44C48.0428 15.7813 48.0855 16.208 48.0855 16.72C48.0855 17.2107 48.0428 17.6373 47.9575 18H45.3975C45.3122 17.6373 45.2695 17.2107 45.2695 16.72C45.2695 16.208 45.3122 15.7813 45.3975 15.44C45.3122 15.0773 45.2695 14.6507 45.2695 14.16C45.2695 13.648 45.3122 13.2213 45.3975 12.88C45.3122 12.5173 45.2695 12.0907 45.2695 11.6C45.2695 11.088 45.3122 10.6613 45.3975 10.32C45.3122 9.95733 45.2695 9.53067 45.2695 9.04C45.2695 8.528 45.3122 8.10133 45.3975 7.76H41.2375C41.1522 7.39733 41.1095 6.97067 41.1095 6.48C41.1095 5.968 41.1522 5.54133 41.2375 5.2H46.3575C46.4428 5.54133 46.4855 5.968 46.4855 6.48C46.4855 6.97067 46.4428 7.39733 46.3575 7.76H47.9575C48.0428 8.10133 48.0855 8.528 48.0855 9.04C48.0855 9.53067 48.0428 9.95733 47.9575 10.32ZM60.77 12.88C60.8553 13.2213 60.898 13.648 60.898 14.16C60.898 14.6507 60.8553 15.0773 60.77 15.44H59.49C59.5753 15.7813 59.618 16.208 59.618 16.72C59.618 17.2107 59.5753 17.6373 59.49 18H53.09C53.0047 17.6373 52.962 17.2107 52.962 16.72C52.962 16.208 53.0047 15.7813 53.09 15.44H51.81C51.7247 15.0773 51.682 14.6507 51.682 14.16C51.682 13.648 51.7247 13.2213 51.81 12.88H50.53C50.4447 12.5173 50.402 12.0907 50.402 11.6C50.402 11.088 50.4447 10.6613 50.53 10.32H51.81C51.7247 9.95733 51.682 9.53067 51.682 9.04C51.682 8.528 51.7247 8.10133 51.81 7.76H53.09C53.0047 7.39733 52.962 6.97067 52.962 6.48C52.962 5.968 53.0047 5.54133 53.09 5.2H59.49C59.5753 5.54133 59.618 5.968 59.618 6.48C59.618 6.97067 59.5753 7.39733 59.49 7.76H60.77C60.8553 8.10133 60.898 8.528 60.898 9.04C60.898 9.53067 60.8553 9.95733 60.77 10.32H58.21C58.1247 9.95733 58.082 9.53067 58.082 9.04C58.082 8.528 58.1247 8.10133 58.21 7.76H54.37C54.4553 8.10133 54.498 8.528 54.498 9.04C54.498 9.53067 54.4553 9.95733 54.37 10.32H53.09C53.1753 10.6613 53.218 11.088 53.218 11.6C53.218 12.0907 53.1753 12.5173 53.09 12.88H54.37C54.4553 13.2213 54.498 13.648 54.498 14.16C54.498 14.6507 54.4553 15.0773 54.37 15.44H58.21C58.1247 15.0773 58.082 14.6507 58.082 14.16C58.082 13.648 58.1247 13.2213 58.21 12.88H60.77ZM66.0305 6.48C66.0305 6.97067 65.9878 7.39733 65.9025 7.76H66.8625C66.9478 8.10133 66.9905 8.528 66.9905 9.04C66.9905 9.53067 66.9478 9.95733 66.8625 10.32H65.9025C65.9878 10.6613 66.0305 11.088 66.0305 11.6C66.0305 12.0907 65.9878 12.5173 65.9025 12.88C65.9878 13.2213 66.0305 13.648 66.0305 14.16C66.0305 14.6507 65.9878 15.0773 65.9025 15.44C65.9878 15.7813 66.0305 16.208 66.0305 16.72C66.0305 17.2107 65.9878 17.6373 65.9025 18H63.3425C63.2572 17.6373 63.2145 17.2107 63.2145 16.72C63.2145 16.208 63.2572 15.7813 63.3425 15.44C63.2572 15.0773 63.2145 14.6507 63.2145 14.16C63.2145 13.648 63.2572 13.2213 63.3425 12.88C63.2572 12.5173 63.2145 12.0907 63.2145 11.6C63.2145 11.088 63.2572 10.6613 63.3425 10.32C63.2572 9.95733 63.2145 9.53067 63.2145 9.04C63.2145 8.528 63.2572 8.10133 63.3425 7.76C63.2572 7.39733 63.2145 6.97067 63.2145 6.48C63.2145 5.968 63.2572 5.54133 63.3425 5.2C63.2572 4.83733 63.2145 4.41067 63.2145 3.92C63.2145 3.408 63.2572 2.98133 63.3425 2.64C63.2572 2.27733 63.2145 1.85067 63.2145 1.36C63.2145 0.847999 63.2572 0.421333 63.3425 0.0799999H65.9025C65.9878 0.421333 66.0305 0.847999 66.0305 1.36C66.0305 1.85067 65.9878 2.27733 65.9025 2.64C65.9878 2.98133 66.0305 3.408 66.0305 3.92C66.0305 4.41067 65.9878 4.83733 65.9025 5.2C65.9878 5.54133 66.0305 5.968 66.0305 6.48ZM73.5825 10.32C73.6678 10.6613 73.7105 11.088 73.7105 11.6C73.7105 12.0907 73.6678 12.5173 73.5825 12.88C73.6678 13.2213 73.7105 13.648 73.7105 14.16C73.7105 14.6507 73.6678 15.0773 73.5825 15.44C73.6678 15.7813 73.7105 16.208 73.7105 16.72C73.7105 17.2107 73.6678 17.6373 73.5825 18H71.0225C70.9372 17.6373 70.8945 17.2107 70.8945 16.72C70.8945 16.208 70.9372 15.7813 71.0225 15.44C70.9372 15.0773 70.8945 14.6507 70.8945 14.16C70.8945 13.648 70.9372 13.2213 71.0225 12.88C70.9372 12.5173 70.8945 12.0907 70.8945 11.6C70.8945 11.088 70.9372 10.6613 71.0225 10.32C70.9372 9.95733 70.8945 9.53067 70.8945 9.04C70.8945 8.528 70.9372 8.10133 71.0225 7.76H66.8625C66.7772 7.39733 66.7345 6.97067 66.7345 6.48C66.7345 5.968 66.7772 5.54133 66.8625 5.2H71.9825C72.0678 5.54133 72.1105 5.968 72.1105 6.48C72.1105 6.97067 72.0678 7.39733 71.9825 7.76H73.5825C73.6678 8.10133 73.7105 8.528 73.7105 9.04C73.7105 9.53067 73.6678 9.95733 73.5825 10.32ZM86.395 2.64C86.4803 2.98133 86.523 3.408 86.523 3.92C86.523 4.41067 86.4803 4.83733 86.395 5.2C86.4803 5.54133 86.523 5.968 86.523 6.48C86.523 6.97067 86.4803 7.39733 86.395 7.76H85.435C85.5203 8.10133 85.563 8.528 85.563 9.04C85.563 9.53067 85.5203 9.95733 85.435 10.32H84.475C84.5603 10.6613 84.603 11.088 84.603 11.6C84.603 12.0907 84.5603 12.5173 84.475 12.88H83.835C83.9203 13.2213 83.963 13.648 83.963 14.16C83.963 14.6507 83.9203 15.0773 83.835 15.44H82.555C82.6403 15.7813 82.683 16.208 82.683 16.72C82.683 17.2107 82.6403 17.6373 82.555 18H79.995C79.9097 17.6373 79.867 17.2107 79.867 16.72C79.867 16.208 79.9097 15.7813 79.995 15.44H78.715C78.6297 15.0773 78.587 14.6507 78.587 14.16C78.587 13.648 78.6297 13.2213 78.715 12.88H78.075C77.9897 12.5173 77.947 12.0907 77.947 11.6C77.947 11.088 77.9897 10.6613 78.075 10.32H77.115C77.0297 9.95733 76.987 9.53067 76.987 9.04C76.987 8.528 77.0297 8.10133 77.115 7.76H76.155C76.0697 7.39733 76.027 6.97067 76.027 6.48C76.027 5.968 76.0697 5.54133 76.155 5.2C76.0697 4.83733 76.027 4.41067 76.027 3.92C76.027 3.408 76.0697 2.98133 76.155 2.64C76.0697 2.27733 76.027 1.85067 76.027 1.36C76.027 0.847999 76.0697 0.421333 76.155 0.0799999H78.715C78.8003 0.421333 78.843 0.847999 78.843 1.36C78.843 1.85067 78.8003 2.27733 78.715 2.64C78.8003 2.98133 78.843 3.408 78.843 3.92C78.843 4.41067 78.8003 4.83733 78.715 5.2C78.8003 5.54133 78.843 5.968 78.843 6.48C78.843 6.97067 78.8003 7.39733 78.715 7.76H79.675C79.7603 8.10133 79.803 8.528 79.803 9.04C79.803 9.53067 79.7603 9.95733 79.675 10.32H80.635C80.7203 10.6613 80.763 11.088 80.763 11.6C80.763 12.0907 80.7203 12.5173 80.635 12.88H81.915C81.8297 12.5173 81.787 12.0907 81.787 11.6C81.787 11.088 81.8297 10.6613 81.915 10.32H82.875C82.7897 9.95733 82.747 9.53067 82.747 9.04C82.747 8.528 82.7897 8.10133 82.875 7.76H83.835C83.7497 7.39733 83.707 6.97067 83.707 6.48C83.707 5.968 83.7497 5.54133 83.835 5.2C83.7497 4.83733 83.707 4.41067 83.707 3.92C83.707 3.408 83.7497 2.98133 83.835 2.64C83.7497 2.27733 83.707 1.85067 83.707 1.36C83.707 0.847999 83.7497 0.421333 83.835 0.0799999H86.395C86.4803 0.421333 86.523 0.847999 86.523 1.36C86.523 1.85067 86.4803 2.27733 86.395 2.64ZM99.3355 9.04C99.3355 9.53067 99.2928 9.95733 99.2075 10.32C99.2928 10.6613 99.3355 11.088 99.3355 11.6C99.3355 12.0907 99.2928 12.5173 99.2075 12.88H92.4875C92.5728 13.2213 92.6155 13.648 92.6155 14.16C92.6155 14.6507 92.5728 15.0773 92.4875 15.44H97.9275C98.0128 15.7813 98.0555 16.208 98.0555 16.72C98.0555 17.2107 98.0128 17.6373 97.9275 18H91.5275C91.4422 17.6373 91.3995 17.2107 91.3995 16.72C91.3995 16.208 91.4422 15.7813 91.5275 15.44H89.9275C89.8422 15.0773 89.7995 14.6507 89.7995 14.16C89.7995 13.648 89.8422 13.2213 89.9275 12.88H88.9675C88.8822 12.5173 88.8395 12.0907 88.8395 11.6C88.8395 11.088 88.8822 10.6613 88.9675 10.32H89.9275C89.8422 9.95733 89.7995 9.53067 89.7995 9.04C89.7995 8.528 89.8422 8.10133 89.9275 7.76H91.5275C91.4422 7.39733 91.3995 6.97067 91.3995 6.48C91.3995 5.968 91.4422 5.54133 91.5275 5.2H97.9275C98.0128 5.54133 98.0555 5.968 98.0555 6.48C98.0555 6.97067 98.0128 7.39733 97.9275 7.76H99.2075C99.2928 8.10133 99.3355 8.528 99.3355 9.04ZM96.6475 10.32C96.5622 9.95733 96.5195 9.53067 96.5195 9.04C96.5195 8.528 96.5622 8.10133 96.6475 7.76H92.4875C92.5728 8.10133 92.6155 8.528 92.6155 9.04C92.6155 9.53067 92.5728 9.95733 92.4875 10.32H96.6475ZM112.02 7.76C112.105 8.10133 112.148 8.528 112.148 9.04C112.148 9.53067 112.105 9.95733 112.02 10.32H109.46C109.375 9.95733 109.332 9.53067 109.332 9.04C109.332 8.528 109.375 8.10133 109.46 7.76H107.22C107.305 8.10133 107.348 8.528 107.348 9.04C107.348 9.53067 107.305 9.95733 107.22 10.32H106.26C106.345 10.6613 106.388 11.088 106.388 11.6C106.388 12.0907 106.345 12.5173 106.26 12.88C106.345 13.2213 106.388 13.648 106.388 14.16C106.388 14.6507 106.345 15.0773 106.26 15.44H108.18C108.265 15.7813 108.308 16.208 108.308 16.72C108.308 17.2107 108.265 17.6373 108.18 18H101.78C101.695 17.6373 101.652 17.2107 101.652 16.72C101.652 16.208 101.695 15.7813 101.78 15.44H103.7C103.615 15.0773 103.572 14.6507 103.572 14.16C103.572 13.648 103.615 13.2213 103.7 12.88C103.615 12.5173 103.572 12.0907 103.572 11.6C103.572 11.088 103.615 10.6613 103.7 10.32C103.615 9.95733 103.572 9.53067 103.572 9.04C103.572 8.528 103.615 8.10133 103.7 7.76H101.78C101.695 7.39733 101.652 6.97067 101.652 6.48C101.652 5.968 101.695 5.54133 101.78 5.2H104.98C105.065 5.54133 105.108 5.968 105.108 6.48C105.108 6.97067 105.065 7.39733 104.98 7.76H106.26C106.175 7.39733 106.132 6.97067 106.132 6.48C106.132 5.968 106.175 5.54133 106.26 5.2H111.06C111.145 5.54133 111.188 5.968 111.188 6.48C111.188 6.97067 111.145 7.39733 111.06 7.76H112.02ZM124.321 14.16C124.321 14.6507 124.278 15.0773 124.193 15.44H122.913C122.998 15.7813 123.041 16.208 123.041 16.72C123.041 17.2107 122.998 17.6373 122.913 18H115.873C115.787 17.6373 115.745 17.2107 115.745 16.72C115.745 16.208 115.787 15.7813 115.873 15.44H121.633C121.547 15.0773 121.505 14.6507 121.505 14.16C121.505 13.648 121.547 13.2213 121.633 12.88H116.513C116.427 12.5173 116.385 12.0907 116.385 11.6C116.385 11.088 116.427 10.6613 116.513 10.32H115.233C115.147 9.95733 115.105 9.53067 115.105 9.04C115.105 8.528 115.147 8.10133 115.233 7.76H116.513C116.427 7.39733 116.385 6.97067 116.385 6.48C116.385 5.968 116.427 5.54133 116.513 5.2H123.553C123.638 5.54133 123.681 5.968 123.681 6.48C123.681 6.97067 123.638 7.39733 123.553 7.76H117.793C117.878 8.10133 117.921 8.528 117.921 9.04C117.921 9.53067 117.878 9.95733 117.793 10.32H122.913C122.998 10.6613 123.041 11.088 123.041 11.6C123.041 12.0907 122.998 12.5173 122.913 12.88H124.193C124.278 13.2213 124.321 13.648 124.321 14.16ZM137.773 9.04C137.773 9.53067 137.73 9.95733 137.645 10.32C137.73 10.6613 137.773 11.088 137.773 11.6C137.773 12.0907 137.73 12.5173 137.645 12.88H130.925C131.01 13.2213 131.053 13.648 131.053 14.16C131.053 14.6507 131.01 15.0773 130.925 15.44H136.365C136.45 15.7813 136.493 16.208 136.493 16.72C136.493 17.2107 136.45 17.6373 136.365 18H129.965C129.88 17.6373 129.837 17.2107 129.837 16.72C129.837 16.208 129.88 15.7813 129.965 15.44H128.365C128.28 15.0773 128.237 14.6507 128.237 14.16C128.237 13.648 128.28 13.2213 128.365 12.88H127.405C127.32 12.5173 127.277 12.0907 127.277 11.6C127.277 11.088 127.32 10.6613 127.405 10.32H128.365C128.28 9.95733 128.237 9.53067 128.237 9.04C128.237 8.528 128.28 8.10133 128.365 7.76H129.965C129.88 7.39733 129.837 6.97067 129.837 6.48C129.837 5.968 129.88 5.54133 129.965 5.2H136.365C136.45 5.54133 136.493 5.968 136.493 6.48C136.493 6.97067 136.45 7.39733 136.365 7.76H137.645C137.73 8.10133 137.773 8.528 137.773 9.04ZM135.085 10.32C135 9.95733 134.957 9.53067 134.957 9.04C134.957 8.528 135 8.10133 135.085 7.76H130.925C131.01 8.10133 131.053 8.528 131.053 9.04C131.053 9.53067 131.01 9.95733 130.925 10.32H135.085ZM147.066 14.16C147.066 14.6507 147.023 15.0773 146.938 15.44C147.023 15.7813 147.066 16.208 147.066 16.72C147.066 17.2107 147.023 17.6373 146.938 18H143.738C143.652 17.6373 143.61 17.2107 143.61 16.72C143.61 16.208 143.652 15.7813 143.738 15.44C143.652 15.0773 143.61 14.6507 143.61 14.16C143.61 13.648 143.652 13.2213 143.738 12.88H146.938C147.023 13.2213 147.066 13.648 147.066 14.16ZM163.27 2.64C163.355 2.98133 163.398 3.408 163.398 3.92C163.398 4.41067 163.355 4.83733 163.27 5.2C163.355 5.54133 163.398 5.968 163.398 6.48C163.398 6.97067 163.355 7.39733 163.27 7.76C163.355 8.10133 163.398 8.528 163.398 9.04C163.398 9.53067 163.355 9.95733 163.27 10.32C163.355 10.6613 163.398 11.088 163.398 11.6C163.398 12.0907 163.355 12.5173 163.27 12.88C163.355 13.2213 163.398 13.648 163.398 14.16C163.398 14.6507 163.355 15.0773 163.27 15.44C163.355 15.7813 163.398 16.208 163.398 16.72C163.398 17.2107 163.355 17.6373 163.27 18H160.71C160.625 17.6373 160.582 17.2107 160.582 16.72C160.582 16.208 160.625 15.7813 160.71 15.44H159.75C159.665 15.0773 159.622 14.6507 159.622 14.16C159.622 13.648 159.665 13.2213 159.75 12.88H160.71C160.625 12.5173 160.582 12.0907 160.582 11.6C160.582 11.088 160.625 10.6613 160.71 10.32H159.75C159.665 9.95733 159.622 9.53067 159.622 9.04C159.622 8.528 159.665 8.10133 159.75 7.76H160.71C160.625 7.39733 160.582 6.97067 160.582 6.48C160.582 5.968 160.625 5.54133 160.71 5.2C160.625 4.83733 160.582 4.41067 160.582 3.92C160.582 3.408 160.625 2.98133 160.71 2.64C160.625 2.27733 160.582 1.85067 160.582 1.36C160.582 0.847999 160.625 0.421333 160.71 0.0799999H163.27C163.355 0.421333 163.398 0.847999 163.398 1.36C163.398 1.85067 163.355 2.27733 163.27 2.64ZM159.238 6.48C159.238 6.97067 159.195 7.39733 159.11 7.76H155.91C155.995 8.10133 156.038 8.528 156.038 9.04C156.038 9.53067 155.995 9.95733 155.91 10.32H154.95C155.035 10.6613 155.078 11.088 155.078 11.6C155.078 12.0907 155.035 12.5173 154.95 12.88H155.91C155.995 13.2213 156.038 13.648 156.038 14.16C156.038 14.6507 155.995 15.0773 155.91 15.44H159.11C159.195 15.7813 159.238 16.208 159.238 16.72C159.238 17.2107 159.195 17.6373 159.11 18H155.59C155.505 17.6373 155.462 17.2107 155.462 16.72C155.462 16.208 155.505 15.7813 155.59 15.44H153.99C153.905 15.0773 153.862 14.6507 153.862 14.16C153.862 13.648 153.905 13.2213 153.99 12.88H153.03C152.945 12.5173 152.902 12.0907 152.902 11.6C152.902 11.088 152.945 10.6613 153.03 10.32H153.99C153.905 9.95733 153.862 9.53067 153.862 9.04C153.862 8.528 153.905 8.10133 153.99 7.76H155.59C155.505 7.39733 155.462 6.97067 155.462 6.48C155.462 5.968 155.505 5.54133 155.59 5.2H159.11C159.195 5.54133 159.238 5.968 159.238 6.48ZM176.211 9.04C176.211 9.53067 176.168 9.95733 176.083 10.32C176.168 10.6613 176.211 11.088 176.211 11.6C176.211 12.0907 176.168 12.5173 176.083 12.88H169.363C169.448 13.2213 169.491 13.648 169.491 14.16C169.491 14.6507 169.448 15.0773 169.363 15.44H174.803C174.888 15.7813 174.931 16.208 174.931 16.72C174.931 17.2107 174.888 17.6373 174.803 18H168.403C168.317 17.6373 168.275 17.2107 168.275 16.72C168.275 16.208 168.317 15.7813 168.403 15.44H166.803C166.717 15.0773 166.674 14.6507 166.674 14.16C166.674 13.648 166.717 13.2213 166.803 12.88H165.843C165.757 12.5173 165.715 12.0907 165.715 11.6C165.715 11.088 165.757 10.6613 165.843 10.32H166.803C166.717 9.95733 166.674 9.53067 166.674 9.04C166.674 8.528 166.717 8.10133 166.803 7.76H168.403C168.317 7.39733 168.275 6.97067 168.275 6.48C168.275 5.968 168.317 5.54133 168.403 5.2H174.803C174.888 5.54133 174.931 5.968 174.931 6.48C174.931 6.97067 174.888 7.39733 174.803 7.76H176.083C176.168 8.10133 176.211 8.528 176.211 9.04ZM173.523 10.32C173.437 9.95733 173.395 9.53067 173.395 9.04C173.395 8.528 173.437 8.10133 173.523 7.76H169.363C169.448 8.10133 169.491 8.528 169.491 9.04C169.491 9.53067 169.448 9.95733 169.363 10.32H173.523ZM189.023 6.48C189.023 6.97067 188.98 7.39733 188.895 7.76H187.935C188.02 8.10133 188.063 8.528 188.063 9.04C188.063 9.53067 188.02 9.95733 187.935 10.32H186.975C187.06 10.6613 187.103 11.088 187.103 11.6C187.103 12.0907 187.06 12.5173 186.975 12.88H186.335C186.42 13.2213 186.463 13.648 186.463 14.16C186.463 14.6507 186.42 15.0773 186.335 15.44H185.055C185.14 15.7813 185.183 16.208 185.183 16.72C185.183 17.2107 185.14 17.6373 185.055 18H182.495C182.41 17.6373 182.367 17.2107 182.367 16.72C182.367 16.208 182.41 15.7813 182.495 15.44H181.215C181.13 15.0773 181.087 14.6507 181.087 14.16C181.087 13.648 181.13 13.2213 181.215 12.88H180.575C180.49 12.5173 180.447 12.0907 180.447 11.6C180.447 11.088 180.49 10.6613 180.575 10.32H179.615C179.53 9.95733 179.487 9.53067 179.487 9.04C179.487 8.528 179.53 8.10133 179.615 7.76H178.655C178.57 7.39733 178.527 6.97067 178.527 6.48C178.527 5.968 178.57 5.54133 178.655 5.2H181.215C181.3 5.54133 181.343 5.968 181.343 6.48C181.343 6.97067 181.3 7.39733 181.215 7.76H182.175C182.26 8.10133 182.303 8.528 182.303 9.04C182.303 9.53067 182.26 9.95733 182.175 10.32H183.135C183.22 10.6613 183.263 11.088 183.263 11.6C183.263 12.0907 183.22 12.5173 183.135 12.88H184.415C184.33 12.5173 184.287 12.0907 184.287 11.6C184.287 11.088 184.33 10.6613 184.415 10.32H185.375C185.29 9.95733 185.247 9.53067 185.247 9.04C185.247 8.528 185.29 8.10133 185.375 7.76H186.335C186.25 7.39733 186.207 6.97067 186.207 6.48C186.207 5.968 186.25 5.54133 186.335 5.2H188.895C188.98 5.54133 189.023 5.968 189.023 6.48Z" fill="black"/>
</svg>
