<svg width="55" height="55" viewBox="0 0 55 55" fill="none" xmlns="http://www.w3.org/2000/svg">
<g clip-path="url(#clip0_9_30)">
<rect width="55" height="55" rx="8" fill="#CD93E4"/>
<path d="M16.4 24.8C16.5067 25.2267 16.56 25.76 16.56 26.4C16.56 27.0133 16.5067 27.5467 16.4 28H5.2C5.09333 27.5467 5.04 27.0133 5.04 26.4C5.04 25.76 5.09333 25.2267 5.2 24.8C5.09333 24.3467 5.04 23.8133 5.04 23.2C5.04 22.56 5.09333 22.0267 5.2 21.6C5.09333 21.1467 5.04 20.6133 5.04 20C5.04 19.36 5.09333 18.8267 5.2 18.4C5.09333 17.9467 5.04 17.4133 5.04 16.8C5.04 16.16 5.09333 15.6267 5.2 15.2C5.09333 14.7467 5.04 14.2133 5.04 13.6C5.04 12.96 5.09333 12.4267 5.2 12C5.09333 11.5467 5.04 11.0133 5.04 10.4C5.04 9.76 5.09333 9.22667 5.2 8.8C5.09333 8.34667 5.04 7.81333 5.04 7.2C5.04 6.56 5.09333 6.02667 5.2 5.6H8.4C8.50667 6.02667 8.56 6.56 8.56 7.2C8.56 7.81333 8.50667 8.34667 8.4 8.8C8.50667 9.22667 8.56 9.76 8.56 10.4C8.56 11.0133 8.50667 11.5467 8.4 12C8.50667 12.4267 8.56 12.96 8.56 13.6C8.56 14.2133 8.50667 14.7467 8.4 15.2C8.50667 15.6267 8.56 16.16 8.56 16.8C8.56 17.4133 8.50667 17.9467 8.4 18.4C8.50667 18.8267 8.56 19.36 8.56 20C8.56 20.6133 8.50667 21.1467 8.4 21.6C8.50667 22.0267 8.56 22.56 8.56 23.2C8.56 23.8133 8.50667 24.3467 8.4 24.8H16.4ZM32.4156 8.8C32.5223 9.22667 32.5756 9.76 32.5756 10.4C32.5756 11.0133 32.5223 11.5467 32.4156 12C32.5223 12.4267 32.5756 12.96 32.5756 13.6C32.5756 14.2133 32.5223 14.7467 32.4156 15.2H31.2156C31.3223 15.6267 31.3756 16.16 31.3756 16.8C31.3756 17.4133 31.3223 17.9467 31.2156 18.4H30.0156C30.1223 18.8267 30.1756 19.36 30.1756 20C30.1756 20.6133 30.1223 21.1467 30.0156 21.6H29.2156C29.3223 22.0267 29.3756 22.56 29.3756 23.2C29.3756 23.8133 29.3223 24.3467 29.2156 24.8H27.6156C27.7223 25.2267 27.7756 25.76 27.7756 26.4C27.7756 27.0133 27.7223 27.5467 27.6156 28H24.4156C24.309 27.5467 24.2556 27.0133 24.2556 26.4C24.2556 25.76 24.309 25.2267 24.4156 24.8H22.8156C22.709 24.3467 22.6556 23.8133 22.6556 23.2C22.6556 22.56 22.709 22.0267 22.8156 21.6H22.0156C21.909 21.1467 21.8556 20.6133 21.8556 20C21.8556 19.36 21.909 18.8267 22.0156 18.4H20.8156C20.709 17.9467 20.6556 17.4133 20.6556 16.8C20.6556 16.16 20.709 15.6267 20.8156 15.2H19.6156C19.509 14.7467 19.4556 14.2133 19.4556 13.6C19.4556 12.96 19.509 12.4267 19.6156 12C19.509 11.5467 19.4556 11.0133 19.4556 10.4C19.4556 9.76 19.509 9.22667 19.6156 8.8C19.509 8.34667 19.4556 7.81333 19.4556 7.2C19.4556 6.56 19.509 6.02667 19.6156 5.6H22.8156C22.9223 6.02667 22.9756 6.56 22.9756 7.2C22.9756 7.81333 22.9223 8.34667 22.8156 8.8C22.9223 9.22667 22.9756 9.76 22.9756 10.4C22.9756 11.0133 22.9223 11.5467 22.8156 12C22.9223 12.4267 22.9756 12.96 22.9756 13.6C22.9756 14.2133 22.9223 14.7467 22.8156 15.2H24.0156C24.1223 15.6267 24.1756 16.16 24.1756 16.8C24.1756 17.4133 24.1223 17.9467 24.0156 18.4H25.2156C25.3223 18.8267 25.3756 19.36 25.3756 20C25.3756 20.6133 25.3223 21.1467 25.2156 21.6H26.8156C26.709 21.1467 26.6556 20.6133 26.6556 20C26.6556 19.36 26.709 18.8267 26.8156 18.4H28.0156C27.909 17.9467 27.8556 17.4133 27.8556 16.8C27.8556 16.16 27.909 15.6267 28.0156 15.2H29.2156C29.109 14.7467 29.0556 14.2133 29.0556 13.6C29.0556 12.96 29.109 12.4267 29.2156 12C29.109 11.5467 29.0556 11.0133 29.0556 10.4C29.0556 9.76 29.109 9.22667 29.2156 8.8C29.109 8.34667 29.0556 7.81333 29.0556 7.2C29.0556 6.56 29.109 6.02667 29.2156 5.6H32.4156C32.5223 6.02667 32.5756 6.56 32.5756 7.2C32.5756 7.81333 32.5223 8.34667 32.4156 8.8Z" fill="black"/>
<path fill-rule="evenodd" clip-rule="evenodd" d="M37.164 31.4502L38.8173 29.9035C40.1494 28.6574 42.4857 27.7927 44.8075 27.4824C45.9516 27.3295 47.0335 27.32 47.9166 27.4437C48.8306 27.5718 49.3909 27.8221 49.6528 28.0669C49.9144 28.3117 50.182 28.8358 50.3188 29.6909C50.4511 30.517 50.441 31.5292 50.2775 32.5995C49.9458 34.7714 49.0214 36.957 47.6892 38.2031L38.5 46.7996L36.1306 44.5832C35.7271 44.2057 35.0728 44.2057 34.6693 44.5832C34.2657 44.9606 34.2657 45.5727 34.6693 45.9503L37.7693 48.8503C38.1729 49.2277 38.8271 49.2277 39.2307 48.8503L40.3615 47.7924L42.7806 51.5639C42.9443 51.8193 43.2246 51.9897 43.5404 52.0262C43.8562 52.0625 44.1724 51.9607 44.3972 51.7503L48.5306 47.8836C48.7606 47.6685 48.8689 47.3645 48.823 47.0633L47.8626 40.7751L49.1508 39.5702C50.9186 37.9163 51.9575 35.2685 52.3233 32.8729C52.5087 31.6595 52.5308 30.4544 52.3628 29.4046C52.1993 28.3838 51.8339 27.3733 51.1139 26.6998C50.3941 26.0263 49.3138 25.6846 48.2226 25.5317C47.1004 25.3745 45.8123 25.3952 44.515 25.5685C41.9543 25.9107 39.1239 26.8826 37.356 28.5364L36.068 29.7414L29.3461 28.8431C29.0242 28.8001 28.6993 28.9013 28.4693 29.1165L24.336 32.9831C24.111 33.1937 24.0022 33.4894 24.0411 33.7848C24.08 34.0802 24.2622 34.3425 24.535 34.4956L28.5668 36.7586L27.436 37.8165C27.2422 37.9978 27.1334 38.2437 27.1334 38.5C27.1334 38.7564 27.2422 39.0023 27.436 39.1836L30.536 42.0836C30.9396 42.4611 31.5938 42.4611 31.9974 42.0836C32.4009 41.7061 32.4009 41.094 31.9974 40.7165L29.628 38.5L30.964 37.2502L37.164 31.4502ZM43.8719 49.5076L41.8678 46.3832L46.0359 42.484L46.704 46.8582L43.8719 49.5076ZM30.0732 35.3495L34.2413 31.4502L29.5653 30.8253L26.7332 33.4748L30.0732 35.3495ZM27.864 44.0168C28.2676 43.6394 28.2676 43.0273 27.864 42.6498C27.4605 42.2723 26.8062 42.2723 26.4027 42.6498L24.336 44.5831C23.9324 44.9606 23.9324 45.5727 24.336 45.9501C24.7395 46.3277 25.3938 46.3277 25.7973 45.9501L27.864 44.0168ZM30.9641 46.917C31.3676 46.5394 31.3676 45.9273 30.9641 45.5499C30.5605 45.1723 29.9063 45.1723 29.5027 45.5499L25.3693 49.4164C24.9658 49.794 24.9658 50.4061 25.3693 50.7834C25.7729 51.161 26.4271 51.161 26.8307 50.7836L30.9641 46.917ZM34.064 49.8168C34.4676 49.4394 34.4676 48.8273 34.064 48.4497C33.6605 48.0723 33.0062 48.0723 32.6027 48.4497L30.536 50.3831C30.1325 50.7606 30.1325 51.3727 30.536 51.7501C30.9395 52.1277 31.5938 52.1277 31.9973 51.7501L34.064 49.8168ZM40.6183 34.5368C40.6183 33.5491 41.4742 32.7484 42.53 32.7484C43.5857 32.7484 44.4417 33.5491 44.4417 34.5368C44.4417 35.5244 43.5857 36.3251 42.53 36.3251C41.4742 36.3251 40.6183 35.5244 40.6183 34.5368ZM42.53 31.1051C40.504 31.1051 38.8616 32.6415 38.8616 34.5368C38.8616 36.432 40.504 37.9684 42.53 37.9684C44.5559 37.9684 46.1983 36.432 46.1983 34.5368C46.1983 32.6415 44.5559 31.1051 42.53 31.1051Z" fill="black"/>
</g>
<defs>
<clipPath id="clip0_9_30">
<rect width="55" height="55" rx="8" fill="white"/>
</clipPath>
</defs>
</svg>
